<svg id="Layer_1" data-name="Layer 1" xmlns="http://www.w3.org/2000/svg" width="517.2324" height="517.2324" viewBox="0 0 517.2324 517.2324"><defs><style>.cls-1{fill:#2415ff;}.cls-2{fill:#29b8ff;}.cls-3{fill:#191919;}</style></defs><path class="cls-1" d="M283.5887,120.1225v.2888l.2062-.2888Z"/><path class="cls-1" d="M317.0366,244.6348V47.8649L165.1393,259.73H300.4572v47.8831h16.5794V259.73h35.0565V244.6348Zm-16.5794,0H194.5452l89.0435-124.2235v-.2888h.2062l16.6623-23.261Z"/><path class="cls-1" d="M283.5887,120.1225v.2888l.2062-.2888Z"/><path class="cls-2" d="M317.0366,244.6348V47.8649L165.1393,259.73H300.4572v47.8831h16.5794V259.73h35.0565V244.6348Zm-16.5794,0H194.5452l89.0435-124.2235v-.2888h.2062l16.6623-23.261Z"/><polygon class="cls-3" points="220.652 259.73 204.155 282.743 184.276 282.743 200.773 259.73 220.652 259.73"/><polygon class="cls-3" points="283.589 144.25 283.589 171.965 231.499 244.635 211.579 244.635 283.589 144.25"/><polygon class="cls-3" points="259.049 259.73 242.552 282.743 222.632 282.743 239.129 259.73 259.049 259.73"/><polygon class="cls-3" points="283.589 197.742 283.589 225.498 269.855 244.635 249.976 244.635 283.589 197.742"/><path d="M77.9121,398.2627h45.28V362.3815H132.99v88.31h-9.7977V407.53h-45.28V450.692H68.1144v-88.31h9.7977Z"/><path d="M204.4744,425.8016H166.8737l-10.5919,24.89H145.4249l40.6462-92.5473,39.587,92.5473h-10.856Zm-3.84-9.27-14.8286-35.3493L170.7133,416.532Z"/><path class="cls-2" d="M284.4333,425.0055H295.29v9.0036H284.4333V450.692h-9.7968V434.0091H229.3556l55.0777-76.5256Zm-9.7968,0V385.95l-27.9359,39.056Z"/><path d="M313.2871,362.3815h18.0062c8.8706,0,21.4488.9271,32.5707,10.3277,8.0755,6.7522,15.0927,18.0053,15.0927,33.894,0,18.5353-9.1356,28.466-15.4907,33.894-8.0755,6.8852-16.549,10.1948-32.3047,10.1948H313.2871Zm9.7977,79.0428H331.69c7.0172,0,16.6829-.7941,25.2884-7.9453,6.62-5.5591,11.9161-14.2985,11.9161-26.8758,0-21.1837-14.8286-34.9541-37.2045-34.9541h-8.6056Z"/><path d="M412.8406,362.3815c4.8988,0,13.7694.397,20.2575,5.5609,2.78,2.1184,7.9434,7.5464,7.9434,18.2712,0,4.37-.9271,12.0491-8.7385,17.3441,12.3132,3.0455,16.815,13.77,16.815,22.2439a24.406,24.406,0,0,1-9.0036,19.0653c-7.0163,5.5591-15.0927,5.8251-21.1837,5.8251H396.9528v-88.31Zm-6.09,38.7937h7.4143c5.1639,0,17.3441-1.06,17.3441-14.6975,0-14.5626-14.2986-14.8286-17.0791-14.8286h-7.6793Zm0,40.2491h11.254c5.693,0,11.2539-.397,15.4907-3.7085a14.8787,14.8787,0,0,0,5.825-12.18,14.3068,14.3068,0,0,0-7.5463-12.9743c-3.31-1.8543-7.9444-2.6485-14.9616-2.6485H406.7505Z"/></svg>