<svg id="Layer_1" data-name="Layer 1" xmlns="http://www.w3.org/2000/svg" width="500" height="150" viewBox="0 0 500 150"><defs><style>.cls-1{fill:#fff;}</style></defs><path class="cls-1" d="M42.22,68.4908H92.8175V28.3958h10.9484v98.6816H92.8175v-48.23H42.22v48.23H31.2715V28.3958H42.22Z"/><path class="cls-1" d="M183.6454,99.2638H141.629l-11.8358,27.8136H117.6613l45.42-103.4159L207.317,127.0774H195.1861Zm-4.2906-10.3581-16.57-39.5007L145.92,88.9057Z"/><path class="cls-1" d="M272.9946,98.3743h12.132v10.061h-12.132v18.6421H262.0473V108.4353H211.4486l61.546-85.5127Zm-10.9473,0V54.7316L230.8306,98.3743Z"/><path class="cls-1" d="M305.237,28.3958h20.1208c9.9124,0,23.9677,1.036,36.3958,11.5406,9.0239,7.5452,16.8652,20.12,16.8652,37.8745,0,20.712-10.2085,31.809-17.31,37.8744-9.0239,7.6938-18.4925,11.3921-36.0986,11.3921H305.237Zm10.9484,88.3255h9.6162c7.8413,0,18.6421-.8874,28.2582-8.8783,7.3976-6.212,13.3155-15.9778,13.3155-30.0321,0-23.6716-16.57-39.0591-41.5737-39.0591h-9.6162Z"/><path class="cls-1" d="M416.4819,28.3958c5.4742,0,15.3865.4437,22.6365,6.214,3.106,2.3672,8.8764,8.4326,8.8764,20.417,0,4.8829-1.0361,13.464-9.7648,19.3809,13.7592,3.4032,18.79,15.3875,18.79,24.8561a27.2721,27.2721,0,0,1-10.061,21.3044c-7.84,6.212-16.8652,6.5092-23.6715,6.5092h-24.559V28.3958Zm-6.8053,43.35h8.285c5.77,0,19.381-1.1846,19.381-16.4235,0-16.2729-15.9778-16.57-19.0848-16.57h-8.5812Zm0,44.9759h12.5756c6.3616,0,12.5756-.4437,17.31-4.144a16.6263,16.6263,0,0,0,6.5091-13.6106,15.9872,15.9872,0,0,0-8.4326-14.4981c-3.6983-2.072-8.8773-2.9594-16.7187-2.9594H409.6766Z"/></svg>