<svg id="Layer_1" data-name="Layer 1" xmlns="http://www.w3.org/2000/svg" width="517.2324" height="517.2324" viewBox="0 0 517.2324 517.2324"><defs><style>.cls-1{fill:#fff;}</style></defs><path class="cls-1" d="M352.0931,365.6545V50.8086L109.0465,389.8072H325.5647v76.6165h26.5284V389.8072h56.0928V365.6545Zm-26.5284,0H156.0981L298.574,166.888v-.462h.33l26.6608-37.2194Z"/><polygon class="cls-1" points="197.871 389.807 171.474 426.631 139.666 426.631 166.063 389.807 197.871 389.807"/><polygon class="cls-1" points="298.574 205.031 298.574 249.377 215.227 365.654 183.353 365.654 298.574 205.031"/><polygon class="cls-1" points="259.309 389.807 232.912 426.631 201.038 426.631 227.435 389.807 259.309 389.807"/><polygon class="cls-1" points="298.574 290.622 298.574 335.034 276.599 365.654 244.791 365.654 298.574 290.622"/></svg>